<svg width="41" height="41" viewBox="0 0 41 41" fill="none" xmlns="http://www.w3.org/2000/svg">
<path d="M6.51475 4.39111H35.1954C36.183 4.39111 36.969 5.17837 36.969 6.16748V34.9123C36.969 35.8812 36.183 36.6887 35.1954 36.6887H26.9721V24.1734H31.1643L31.7892 19.3085H26.9721V16.1999C26.9721 14.7869 27.3752 13.818 29.3907 13.818H31.9706V9.45779C31.5271 9.39724 29.9954 9.27612 28.2217 9.27612C24.493 9.27612 21.9535 11.5369 21.9535 15.7154V19.3085H17.7411V24.1734H21.9535V36.6887H6.51475C5.52715 36.6887 4.72095 35.8812 4.72095 34.9123V6.16748C4.72095 5.17837 5.52715 4.39111 6.51475 4.39111Z" fill="black"/>
</svg>
