<svg width="41" height="41" viewBox="0 0 41 41" fill="none" xmlns="http://www.w3.org/2000/svg">
<path d="M38.2201 9.35748C37.2325 10.8311 35.9829 12.1431 34.5317 13.1928C34.5518 13.4956 34.5518 13.8186 34.5518 14.1416C34.5518 23.9317 27.1146 35.2157 13.5301 35.2157C9.35805 35.2157 5.46813 33.9844 2.18286 31.885C2.76736 31.9456 3.35185 31.9859 3.9565 31.9859C7.42317 31.9859 10.6077 30.795 13.127 28.8168C9.90224 28.7562 7.18131 26.6165 6.23402 23.6693C6.67743 23.7501 7.141 23.8106 7.62472 23.8106C8.28984 23.8106 8.95495 23.7097 9.5596 23.5482C6.19371 22.8619 3.63402 19.8744 3.63402 16.2813V16.2005C4.64178 16.7455 5.77046 17.0887 6.97976 17.1291C5.00457 15.7968 3.69449 13.536 3.69449 10.9522C3.69449 9.59971 4.05728 8.328 4.70224 7.23796C8.3503 11.7192 13.7922 14.6664 19.9394 14.9692C19.8185 14.4242 19.7379 13.859 19.7379 13.2736C19.7379 9.196 23.0635 5.8855 27.1348 5.8855C29.2712 5.8855 31.186 6.77368 32.5363 8.22707C34.2092 7.88391 35.8015 7.27833 37.2325 6.43052C36.6681 8.14633 35.4991 9.59972 33.9673 10.5081C35.479 10.3466 36.8898 9.94288 38.2201 9.35748Z" fill="black"/>
</svg>
