<svg width="41" height="41" viewBox="0 0 41 41" fill="none" xmlns="http://www.w3.org/2000/svg">
<path d="M25.5969 20.5399C25.5969 17.512 23.1783 15.0897 20.155 15.0897C17.1318 15.0897 14.7132 17.512 14.7132 20.5399C14.7132 23.5678 17.1318 25.9901 20.155 25.9901C23.1783 25.9901 25.5969 23.5678 25.5969 20.5399ZM28.4186 20.5399C28.4186 25.1827 24.7907 28.8161 20.155 28.8161C15.5194 28.8161 11.8915 25.1827 11.8915 20.5399C11.8915 15.8971 15.5194 12.2636 20.155 12.2636C24.7907 12.2636 28.4186 15.8971 28.4186 20.5399ZM30.6356 11.8599C30.6356 13.0711 29.8294 13.8785 28.6201 13.8785C27.4108 13.8785 26.6046 13.0711 26.6046 11.8599C26.6046 10.6488 27.4108 9.84133 28.6201 9.84133C29.8294 9.84133 30.6356 10.8506 30.6356 11.8599ZM20.155 7.21715C17.7364 7.21715 12.6977 7.01529 10.6822 7.82273C9.27131 8.42831 8.06201 9.63947 7.65891 11.0525C6.85271 13.0711 7.05426 18.1176 7.05426 20.5399C7.05426 22.9622 6.85271 28.0087 7.65891 30.0273C8.06201 31.4403 9.27131 32.6515 10.6822 33.0552C12.6977 33.8626 17.938 33.6608 20.155 33.6608C22.3721 33.6608 27.6124 33.8626 29.6279 33.0552C31.0387 32.4496 32.0465 31.4403 32.6512 30.0273C33.4574 27.8068 33.2558 22.7603 33.2558 20.5399C33.2558 18.3194 33.4574 13.0711 32.6512 11.0525C32.2481 9.63947 31.0387 8.42831 29.6279 8.02459C27.6124 7.01529 22.5736 7.21715 20.155 7.21715ZM36.2791 20.5399V27.2013C36.2791 29.6236 35.4729 32.0459 33.6589 34.0645C31.845 35.8812 29.4263 36.6887 26.8062 36.6887H13.5039C11.0853 36.6887 8.66666 35.8812 6.65116 34.0645C5.03876 32.2478 4.03101 29.8254 4.03101 27.2013V20.5399V13.8785C4.03101 11.2543 5.03876 8.83203 6.65116 7.01529C8.66666 5.40041 11.0853 4.39111 13.5039 4.39111H26.8062C29.2248 4.39111 31.6434 5.19855 33.6589 7.01529C35.2713 8.83203 36.2791 11.2543 36.2791 13.8785V20.5399Z" fill="black"/>
</svg>
