<svg width="170" height="24" viewBox="0 0 170 24" fill="none" xmlns="http://www.w3.org/2000/svg">
<g clip-path="url(#clip0_4_114)">
<path d="M6.66187 17.3319C6.66187 17.5402 6.73079 17.713 6.90666 17.8882L9.06945 19.9026C9.24295 20.0754 9.48775 20.1795 9.76583 20.1795H21.6921C22.0414 20.1795 22.2149 20.3523 22.2149 20.7358V23.4437C22.2149 23.8248 22.0414 24 21.6921 24H5.92747C5.54482 24 5.19545 23.8603 4.95065 23.6189L0.313723 19.2753C0.104574 19.067 0 18.8232 0 18.5107V0.556268C0 0.172798 0.173498 0 0.558522 0H6.10334C6.48599 0 6.66187 0.172798 6.66187 0.556268V17.3319Z" fill="#231F20"/>
<path d="M45.5778 20.1795C45.5778 20.4233 45.4733 20.6648 45.2998 20.8731L42.4406 23.7207C42.2671 23.8935 42.0223 23.9976 41.7442 23.9976H28.1448C27.8311 23.9976 27.5863 23.8935 27.4128 23.7207L24.6226 20.8731C24.4491 20.6293 24.3445 20.4209 24.3445 20.1795V5.48693C24.3445 5.10583 24.518 4.93066 24.8674 4.93066H28.9125C29.2951 4.93066 29.471 5.10346 29.471 5.48693V18.9983C29.471 19.2066 29.5399 19.3794 29.7158 19.5546L30.9374 20.8044C31.1109 20.9441 31.2155 21.0127 31.3201 21.0127H38.7472C38.8518 21.0127 38.992 20.9086 39.1655 20.7358L40.3871 19.5191C40.4917 19.4149 40.5963 19.2753 40.632 19.1711V5.48693C40.632 5.10583 40.8054 4.93066 41.1905 4.93066H45.0265C45.4091 4.93066 45.585 5.10346 45.585 5.48693V20.1795H45.5778Z" fill="#231F20"/>
<path d="M70.3381 7.81379C70.5473 8.02209 70.6518 8.29904 70.6518 8.61387V23.4437C70.6518 23.8248 70.4783 24 70.0933 24H66.0838C65.7012 24 65.5253 23.8272 65.5253 23.4437V9.93234C65.5253 9.75954 65.4564 9.61988 65.3518 9.51573L64.0613 8.19489C63.9567 8.09074 63.7832 8.02209 63.6073 8.02209H58.4452C58.1314 8.02209 57.8534 8.0576 57.5396 8.12625L54.6448 8.85531C54.3311 8.92396 54.1576 9.13226 54.1576 9.48023V23.4437C54.1576 23.8248 53.9841 24 53.6347 24H49.5207C49.1713 24 48.9978 23.8272 48.9978 23.4437V7.81379C48.9978 7.22438 49.2426 6.87642 49.7298 6.73676L55.239 5.13897C55.6929 4.99931 56.1112 4.93066 56.5295 4.93066H66.9917C67.3055 4.93066 67.5503 5.03482 67.7238 5.24312L70.3381 7.81379Z" fill="#231F20"/>
<path d="M94.7825 8.71802C94.8871 8.82217 95.0606 9.23878 95.0606 9.41158V22.9561C95.0606 23.6497 94.7112 23.9976 94.0481 23.9976H77.8676C77.5538 23.9976 77.2758 23.8935 76.9953 23.6852L74.2051 21.1145C73.9959 20.9417 73.8914 20.6979 73.8914 20.3854V13.9256C73.8914 13.2321 74.2051 12.8841 74.8682 12.8841H89.934V10.3134C89.934 10.0696 89.8651 9.89683 89.6892 9.72404L88.085 8.09074C87.9804 7.98659 87.8402 7.91794 87.5977 7.91794H74.4166C74.0672 7.91794 73.8937 7.74514 73.8937 7.36167V5.48693C73.8937 5.10583 74.0672 4.93066 74.4166 4.93066H90.5638C90.8419 4.93066 91.0867 5.03482 91.2959 5.24312L94.7825 8.71565V8.71802ZM79.2294 15.0737C78.8468 15.0737 78.6376 15.282 78.6376 15.6631V18.8587C78.6376 19.1356 78.7422 19.3794 78.9157 19.5522L80.1349 20.6293C80.3084 20.8021 80.5176 20.9062 80.7624 20.9062H89.3755C89.7582 20.9062 89.934 20.6979 89.934 20.3144V15.0689H79.227L79.2294 15.0737Z" fill="#231F20"/>
<path d="M123.761 4.4099C123.935 4.5827 124.039 4.82651 124.039 5.13897V10.072L127.702 11.8781C127.98 12.0178 128.12 12.2592 128.12 12.5717V19.9688C128.12 20.2458 128.016 20.4896 127.842 20.6624L124.774 23.7183C124.6 23.8911 124.356 23.9953 124.042 23.9953H99.4573C98.7942 23.9953 98.4805 23.6473 98.4805 22.9537V1.00602C98.4805 0.345596 98.7942 0 99.4573 0H118.602C118.984 0 119.334 0.139659 119.578 0.416609L123.764 4.4099H123.761ZM116.752 3.88914C116.579 3.71634 116.37 3.64533 116.089 3.64533H105.696C105.313 3.64533 105.104 3.85363 105.104 4.30575V10.1406H118.915V6.32015C118.915 6.07634 118.811 5.86803 118.637 5.69524L116.755 3.88914H116.752ZM119.612 12.6072H105.104V19.6919C105.104 20.144 105.313 20.3523 105.732 20.3523H119.543C119.716 20.3523 119.892 20.2837 119.997 20.1795L121.496 18.7214C121.637 18.5817 121.706 18.4089 121.706 18.1651V13.928C121.706 13.7552 121.637 13.651 121.532 13.58L119.614 12.6072H119.612Z" fill="#231F20"/>
<path d="M151.623 8.71802C151.728 8.82217 151.901 9.23878 151.901 9.41158V22.9561C151.901 23.6497 151.552 23.9976 150.891 23.9976H134.711C134.397 23.9976 134.119 23.8935 133.839 23.6852L131.048 21.1145C130.839 20.9417 130.735 20.6979 130.735 20.3854V13.9256C130.735 13.2321 131.048 12.8841 131.711 12.8841H146.777V10.3134C146.777 10.0696 146.708 9.89683 146.532 9.72404L144.928 8.09074C144.824 7.98659 144.683 7.91794 144.441 7.91794H131.26C130.91 7.91794 130.737 7.74514 130.737 7.36167V5.48693C130.737 5.10583 130.91 4.93066 131.26 4.93066H147.407C147.685 4.93066 147.93 5.03482 148.139 5.24312L151.626 8.71565L151.623 8.71802ZM136.07 15.0737C135.685 15.0737 135.479 15.282 135.479 15.6631V18.8587C135.479 19.1356 135.583 19.3794 135.757 19.5522L136.976 20.6293C137.149 20.8021 137.358 20.9062 137.603 20.9062H146.216C146.599 20.9062 146.775 20.6979 146.775 20.3144V15.0689H136.07V15.0737Z" fill="#231F20"/>
<path d="M170 7.95352C170 8.30148 169.826 8.47428 169.441 8.47428H164.384C164.001 8.47428 163.547 8.54293 163.06 8.71809L161.002 9.34301C160.652 9.44716 160.479 9.75962 160.479 10.2472V23.4462C160.479 23.8273 160.305 24.0024 159.956 24.0024H155.842C155.493 24.0024 155.319 23.8296 155.319 23.4462V7.74522C155.319 7.22446 155.564 6.87649 156.051 6.7392L161.632 5.14141C162.154 5.00175 162.677 4.93311 163.167 4.93311H169.444C169.826 4.93311 170.002 5.1059 170.002 5.48937V7.95589L170 7.95352Z" fill="#231F20"/>
</g>
<defs>
<clipPath id="clip0_4_114">
<rect width="170" height="24" fill="white"/>
</clipPath>
</defs>
</svg>
