<svg width="50" height="50" viewBox="0 0 50 50" fill="none" xmlns="http://www.w3.org/2000/svg">
<path d="M31.8991 0.0991096C37.0707 1.68298 41.6109 4.85724 44.8736 9.17019C47.7242 12.9568 49.4628 17.4628 49.8942 22.1825C50.3256 26.9021 49.4327 31.6485 47.3158 35.889C45.1989 40.1295 41.9418 43.6961 37.91 46.1887C33.8782 48.6813 29.2314 50.001 24.4911 49.9999C18.9581 50.0169 13.5723 48.2186 9.15997 44.8808C4.84606 41.6188 1.67109 37.0796 0.0868686 31.9092C-0.0180844 31.5684 -0.0281344 31.2055 0.0577994 30.8594C0.143733 30.5134 0.3224 30.1973 0.574584 29.9452C0.826768 29.693 1.14293 29.5144 1.48906 29.4285C1.8352 29.3426 2.19821 29.3526 2.53906 29.4576C6.2797 30.5881 10.2571 30.6829 14.0473 29.7318C17.8376 28.7807 21.2988 26.8193 24.062 24.0567C26.8253 21.2941 28.7871 17.8337 29.7384 14.0442C30.6898 10.2548 30.5949 6.27831 29.4641 2.53849C29.3591 2.19772 29.3491 1.83479 29.435 1.48873C29.521 1.14267 29.6996 0.826584 29.9518 0.574455C30.204 0.322327 30.5201 0.143703 30.8663 0.057785C31.2124 -0.0281296 31.5754 -0.0180779 31.9163 0.0868492L31.8991 0.0991096Z" fill="#5D6883"/>
</svg>
